<svg width="34" height="34" viewBox="0 0 34 34" fill="none" xmlns="http://www.w3.org/2000/svg">
<g clip-path="url(#clip0_70_465)">
<path d="M21.2 29.5999V18.3999C21.2 18.0286 21.0525 17.6725 20.79 17.41C20.5274 17.1474 20.1713 16.9999 19.8 16.9999H14.2C13.8287 16.9999 13.4726 17.1474 13.2101 17.41C12.9475 17.6725 12.8 18.0286 12.8 18.3999V29.5999M4.40002 14.1999C4.39993 13.7926 4.48869 13.3902 4.66013 13.0207C4.83156 12.6513 5.08154 12.3237 5.39262 12.0607L15.1926 3.66074C15.698 3.23361 16.3383 2.99927 17 2.99927C17.6617 2.99927 18.302 3.23361 18.8074 3.66074L28.6074 12.0607C28.9185 12.3237 29.1685 12.6513 29.3399 13.0207C29.5114 13.3902 29.6001 13.7926 29.6 14.1999V26.7999C29.6 27.5425 29.305 28.2547 28.7799 28.7798C28.2548 29.3049 27.5426 29.5999 26.8 29.5999H7.20002C6.45742 29.5999 5.74523 29.3049 5.22013 28.7798C4.69502 28.2547 4.40002 27.5425 4.40002 26.7999V14.1999Z" stroke="currentColor" stroke-width="2.8" stroke-linecap="round" stroke-linejoin="round"/>
</g>
<defs>
<clipPath id="clip0_70_465">
<rect width="33.6" height="33.6" fill="currentColor" transform="translate(0.199951 0.199951)"/>
</clipPath>
</defs>
</svg>
