<svg width="34" height="34" viewBox="0 0 34 34" fill="none" xmlns="http://www.w3.org/2000/svg">
<path d="M17.0001 11.4001V17.0001M17.0001 22.6001H17.0141M4.38886 23.0789C4.59471 23.5981 4.64054 24.1671 4.52046 24.7127L3.02946 29.3187C2.98141 29.5522 2.99384 29.7942 3.06554 30.0217C3.13725 30.2491 3.26586 30.4545 3.43919 30.6182C3.61252 30.782 3.82481 30.8988 4.05594 30.9576C4.28706 31.0163 4.52936 31.015 4.75986 30.9539L9.53806 29.5567C10.0529 29.4546 10.586 29.4992 11.0767 29.6855C14.0662 31.0816 17.4528 31.3769 20.6389 30.5195C23.825 29.662 26.6058 27.7068 28.4908 24.9988C30.3758 22.2908 31.2438 19.004 30.9417 15.7184C30.6395 12.4328 29.1866 9.35952 26.8393 7.04073C24.4921 4.72195 21.4012 3.30671 18.1122 3.04471C14.8231 2.78272 11.5472 3.69079 8.86247 5.60873C6.1777 7.52667 4.2566 10.3312 3.43811 13.5276C2.61961 16.7239 2.95633 20.1066 4.38886 23.0789Z" stroke="currentColor" stroke-width="2.4" stroke-linecap="round" stroke-linejoin="round"/>
</svg>
