<svg width="34" height="34" viewBox="0 0 34 34" fill="none" xmlns="http://www.w3.org/2000/svg">
<path d="M13.7394 5.99042C13.8165 5.17889 14.1934 4.42528 14.7965 3.87681C15.3996 3.32834 16.1855 3.02441 17.0007 3.02441C17.8158 3.02441 18.6017 3.32834 19.2048 3.87681C19.8079 4.42528 20.1848 5.17889 20.262 5.99042C20.3083 6.51465 20.4803 7.02 20.7633 7.46369C21.0464 7.90738 21.4322 8.27635 21.888 8.53936C22.3439 8.80238 22.8564 8.9517 23.3821 8.97468C23.9079 8.99767 24.4315 8.89365 24.9086 8.67142C25.6493 8.33511 26.4887 8.28644 27.2634 8.5349C28.038 8.78335 28.6925 9.31115 29.0995 10.0156C29.5065 10.72 29.6368 11.5506 29.4651 12.3458C29.2934 13.141 28.8319 13.8439 28.1706 14.3176C27.7399 14.6198 27.3883 15.0213 27.1456 15.4881C26.9029 15.9548 26.7762 16.4732 26.7762 16.9993C26.7762 17.5254 26.9029 18.0438 27.1456 18.5106C27.3883 18.9774 27.7399 19.3788 28.1706 19.681C28.8319 20.1548 29.2934 20.8576 29.4651 21.6528C29.6368 22.448 29.5065 23.2787 29.0995 23.9831C28.6925 24.6875 28.038 25.2153 27.2634 25.4637C26.4887 25.7122 25.6493 25.6635 24.9086 25.3272C24.4315 25.105 23.9079 25.001 23.3821 25.0239C22.8564 25.0469 22.3439 25.1963 21.888 25.4593C21.4322 25.7223 21.0464 26.0912 20.7633 26.5349C20.4803 26.9786 20.3083 27.484 20.262 28.0082C20.1848 28.8197 19.8079 29.5734 19.2048 30.1218C18.6017 30.6703 17.8158 30.9742 17.0007 30.9742C16.1855 30.9742 15.3996 30.6703 14.7965 30.1218C14.1934 29.5734 13.8165 28.8197 13.7394 28.0082C13.6931 27.4838 13.5211 26.9782 13.238 26.5344C12.9548 26.0906 12.5689 25.7215 12.1129 25.4584C11.6569 25.1954 11.1441 25.0461 10.6182 25.0233C10.0922 25.0004 9.56848 25.1047 9.09136 25.3272C8.35061 25.6635 7.51122 25.7122 6.73656 25.4637C5.96191 25.2153 5.3074 24.6875 4.90044 23.9831C4.49347 23.2787 4.36316 22.448 4.53487 21.6528C4.70657 20.8576 5.168 20.1548 5.82936 19.681C6.26003 19.3788 6.61158 18.9774 6.85429 18.5106C7.09699 18.0438 7.2237 17.5254 7.2237 16.9993C7.2237 16.4732 7.09699 15.9548 6.85429 15.4881C6.61158 15.0213 6.26003 14.6198 5.82936 14.3176C5.16893 13.8436 4.70831 13.141 4.53702 12.3464C4.36574 11.5517 4.49601 10.7218 4.90254 10.0178C5.30907 9.31386 5.9628 8.78619 6.73669 8.53735C7.51058 8.28852 8.34934 8.3363 9.08996 8.67142C9.56702 8.89365 10.0906 8.99767 10.6164 8.97468C11.1422 8.9517 11.6547 8.80238 12.1105 8.53936C12.5664 8.27635 12.9521 7.90738 13.2352 7.46369C13.5182 7.02 13.6902 6.51465 13.7366 5.99042M21.2 17C21.2 19.3196 19.3196 21.2 17 21.2C14.6804 21.2 12.8 19.3196 12.8 17C12.8 14.6804 14.6804 12.8 17 12.8C19.3196 12.8 21.2 14.6804 21.2 17Z" stroke="currentColor" stroke-width="2.4" stroke-linecap="round" stroke-linejoin="round"/>
</svg>
